# xmcd CD database file
#
# Track frame offsets:
#	150
#	23532
#	35840
#	74064
#	108660
#	133603
#	147206
#	165635
#	191775
#	233389
#	255131
#	267261
#	290262
#
# Disc length: 4395 seconds
#
# Revision: 0
# Processed by: cddbd v1.5.2PL0 Copyright (c) Steve Scherf et al.
# Submitted via: CDex 1.51
#
DISCID=b711290d
DTITLE=Pete Budden - Two in One
DYEAR=2008
DGENRE=Blues
TTITLE0=Pete Budden - A Long Time Ago
TTITLE1=Pete Budden - Station Shuffle
TTITLE2=Pete Budden - Blues From The Country
TTITLE3=Pete Budden - Out Of This World
TTITLE4=Pete Budden - Love This Day
TTITLE5=Pete Budden - Me Oh My
TTITLE6=Pete Budden - My Favorite Thing
TTITLE7=Pete Budden - Burned Out
TTITLE8=Pete Budden - Turn The Page
TTITLE9=Pete Budden - Oh When The Saints
TTITLE10=Pete Budden - Can't Help Myself
TTITLE11=Pete Budden - Shine
TTITLE12=Pete Budden - Two In One
EXTD=YEAR: 2008
EXTT0=
EXTT1=
EXTT2=
EXTT3=
EXTT4=
EXTT5=
EXTT6=
EXTT7=
EXTT8=
EXTT9=
EXTT10=
EXTT11=
EXTT12=
PLAYORDER=
